<?xml version="1.0" encoding="UTF-8" standalone="no"?><svg xmlns="http://www.w3.org/2000/svg" xmlns:xlink="http://www.w3.org/1999/xlink" fill="#ffffff" height="510" preserveAspectRatio="xMidYMid meet" version="1" viewBox="1.0 1.0 510.0 510.0" width="510" zoomAndPan="magnify"><g><g><g id="change1_1"><path d="M273.143,402.489h-34.287c-0.941,11.29-7.933,95.197-9.042,108.511h52.371 C281.043,497.291,274.082,413.757,273.143,402.489z"/><path d="M87.204,296.779l-59.998,5c3.961,19.812,10.485,38.753,19.198,56.463c-28.009,29.927-27.196,76.617,1.77,105.584 c29.041,29.04,75.765,29.676,105.583,1.77c17.71,8.713,36.651,15.238,56.463,19.198l5-59.998 C152.24,409.6,102.4,359.76,87.204,296.779z M63.52,448.48c-19.115-19.116-21.138-48.562-5.803-69.882 c19.073,30.63,45.054,56.611,75.684,75.684C112.082,469.617,82.635,467.595,63.52,448.48z"/><path d="M109.511,273.143v-34.287C96.377,237.762,17.162,231.161,1,229.814v52.371 C16.405,280.902,94.143,274.424,109.511,273.143z"/><path d="M238.857,109.511h34.287c0.939-11.268,7.9-94.809,9.042-108.511h-52.371C230.924,14.318,237.916,98.22,238.857,109.511z"/><path d="M153.758,46.404c-29.927-28.01-76.616-27.198-105.584,1.77c-29.04,29.041-29.695,75.744-1.77,105.583 c-8.713,17.71-15.238,36.651-19.198,56.463l59.998,5C102.4,152.24,152.24,102.4,215.221,87.204l-5-59.998 C190.409,31.167,171.468,37.691,153.758,46.404z M57.718,133.402c-15.335-21.32-13.312-50.766,5.802-69.881 c19.116-19.116,48.562-21.138,69.882-5.803C102.772,76.791,76.791,102.772,57.718,133.402z"/><path d="M424.795,215.221l59.999-5c-3.961-19.812-10.485-38.753-19.198-56.463c28.008-29.928,27.196-76.617-1.771-105.584 c-29.041-29.041-75.751-29.689-105.583-1.77c-17.71-8.713-36.651-15.237-56.462-19.198l-5,59.998 C359.761,102.4,409.599,152.24,424.795,215.221z M448.479,63.52c19.115,19.116,21.138,48.562,5.803,69.882 c-19.073-30.629-45.054-56.61-75.684-75.684C399.919,42.383,429.365,44.405,448.479,63.52z"/><path d="M402.489,238.857v34.287c13.625,1.135,92.53,7.711,108.511,9.042v-52.371 C495.602,231.098,417.867,237.575,402.489,238.857z"/><path d="M484.794,301.778c-14.318-1.194-33.785-2.818-59.998-5.001C409.6,359.759,359.762,409.599,296.78,424.796l5,59.998 c19.812-3.961,38.752-10.485,56.462-19.198c29.919,28.001,76.609,27.204,105.583-1.77c29.041-29.041,29.695-75.746,1.771-105.584 C474.309,340.532,480.834,321.59,484.794,301.778z M448.479,448.48c-19.115,19.115-48.56,21.139-69.881,5.802 c30.63-19.073,56.611-45.054,75.684-75.684C469.618,399.919,467.595,429.365,448.479,448.48z"/></g></g></g></svg>